<?xml version="1.0" encoding="UTF-8" standalone="no" ?>
<!DOCTYPE svg PUBLIC "-//W3C//DTD SVG 1.1//EN" "http://www.w3.org/Graphics/SVG/1.1/DTD/svg11.dtd">
<svg xmlns="http://www.w3.org/2000/svg" xmlns:xlink="http://www.w3.org/1999/xlink" version="1.1" width="1080" height="1080" viewBox="0 0 1080 1080" xml:space="preserve">
<desc>Created with Fabric.js 5.2.4</desc>
<defs>
</defs>
<g transform="matrix(1 0 0 1 540 540)" id="35a90c72-3b59-406b-af55-e75558169f4d"  >
<rect style="stroke: none; stroke-width: 1; stroke-dasharray: none; stroke-linecap: butt; stroke-dashoffset: 0; stroke-linejoin: miter; stroke-miterlimit: 4; fill: rgb(255,255,255); fill-opacity: 0; fill-rule: nonzero; opacity: 1;" vector-effect="non-scaling-stroke"  x="-540" y="-540" rx="0" ry="0" width="1080" height="1080" />
</g>
<g transform="matrix(1 0 0 1 540 540)" id="2b32e53b-6534-444f-9487-b15bde12eb79"  >
</g>
<g transform="matrix(0 0 0 0 0 0)"  >
<g style=""   >
</g>
</g>
<g transform="matrix(0 0 0 0 0 0)"  >
<g style=""   >
</g>
</g>
<g transform="matrix(30 0 0 30 540 540)"  >
<path style="stroke: none; stroke-width: 1; stroke-dasharray: none; stroke-linecap: butt; stroke-dashoffset: 0; stroke-linejoin: miter; stroke-miterlimit: 4; fill: rgb(0,0,0); fill-rule: evenodd; opacity: 1;"  transform=" translate(-18, -18.06)" d="M 22.0979 9.00001 C 20.795 9 19.9551 9.15522 18.9924 9.62647 C 18.6359 9.80094 18.3015 10.0111 17.9909 10.2562 C 17.6923 10.0248 17.3713 9.82433 17.0296 9.65532 C 16.0482 9.1699 15.1652 9 13.9091 9 C 10.5448 9 8.09998 11.7875 8.09998 15.4079 C 8.09998 18.142 9.62442 20.7831 12.4639 23.3369 C 13.9544 24.6774 15.8574 26.004 17.2202 26.7097 L 18 27.1135 L 18.7797 26.7097 C 20.1426 26.004 22.0456 24.6774 23.536 23.3369 C 26.3755 20.7831 27.9 18.142 27.9 15.4079 C 27.9 11.8259 25.4321 9.01382 22.0979 9.00001 Z M 26.1 15.4079 C 26.1 17.5499 24.8276 19.7544 22.3324 21.9986 C 20.972 23.2221 19.2231 24.4449 18 25.0864 C 16.777 24.4449 15.0281 23.2221 13.6677 21.9986 C 11.1725 19.7544 9.90002 17.5499 9.90002 15.4079 C 9.90002 12.733 11.5953 10.8 13.9091 10.8 C 14.9079 10.8 15.5233 10.9185 16.2316 11.2688 C 16.65 11.4757 17.0198 11.749 17.3399 12.0904 L 18.0021 12.7969 L 18.6583 12.0848 C 18.9856 11.7297 19.3608 11.4502 19.7837 11.2432 C 20.4713 10.9067 21.0483 10.8 22.0942 10.8 C 24.3794 10.8095 26.1 12.7701 26.1 15.4079 Z" stroke-linecap="round" />
</g>
<g transform="matrix(0 0 0 0 0 0)"  >
<g style=""   >
</g>
</g>
<g transform="matrix(1 0 0 1 540 540)"  >
<path style="stroke: rgb(0,0,0); stroke-width: 0; stroke-dasharray: none; stroke-linecap: butt; stroke-dashoffset: 0; stroke-linejoin: miter; stroke-miterlimit: 4; fill: rgb(101,101,101); fill-rule: nonzero; opacity: 1;" vector-effect="non-scaling-stroke"  transform=" translate(-50, -50)" d="M 90.375 67.209 L 9.625 67.209 L 9.625 32.792 L 90.375 32.792 L 90.375 67.209 z M 11.625 65.209 L 88.375 65.209 L 88.375 34.792 L 11.625 34.792 L 11.625 65.209 z" stroke-linecap="round" />
</g>
<g transform="matrix(5.42 0 0 5.42 459.85 494.43)" id="fadcbd36-cebf-4d4a-87f0-6fd5b6943d57"  >
<circle style="stroke: rgb(0,0,0); stroke-width: 0; stroke-dasharray: none; stroke-linecap: butt; stroke-dashoffset: 0; stroke-linejoin: miter; stroke-miterlimit: 4; fill: rgb(0,0,0); fill-rule: nonzero; opacity: 1;" vector-effect="non-scaling-stroke"  cx="0" cy="0" r="35" />
</g>
<g transform="matrix(5.29 0 0 5.29 629.8 491.68)" id="587da6cf-9d58-4847-b49f-4aabf5667c91"  >
<circle style="stroke: rgb(0,0,0); stroke-width: 0; stroke-dasharray: none; stroke-linecap: butt; stroke-dashoffset: 0; stroke-linejoin: miter; stroke-miterlimit: 4; fill: rgb(0,0,0); fill-rule: nonzero; opacity: 1;" vector-effect="non-scaling-stroke"  cx="0" cy="0" r="35" />
</g>
<g transform="matrix(3.49 0 0 3.54 545.79 629.06)" id="137b67ca-d348-4243-9703-4ddecc175120"  >
<circle style="stroke: rgb(0,0,0); stroke-width: 0; stroke-dasharray: none; stroke-linecap: butt; stroke-dashoffset: 0; stroke-linejoin: miter; stroke-miterlimit: 4; fill: rgb(0,0,0); fill-rule: nonzero; opacity: 1;" vector-effect="non-scaling-stroke"  cx="0" cy="0" r="35" />
</g>
</svg>